<svg xmlns="http://www.w3.org/2000/svg" viewBox="0 0 512 512">
  <rect width="512" height="512" rx="112" fill="#C7634A"/>
  <path d="M256 120c-22 0-40 18-40 40v8c-50 14-86 60-86 114v110c0 11 9 20 20 20h212c11 0 20-9 20-20V282c0-54-36-100-86-114v-8c0-22-18-40-40-40zm-20 40c0-11 9-20 20-20s20 9 20 20v4a118 118 0 00-40 0v-4zm-86 122c0-47 39-86 86-86h40c47 0 86 39 86 86v110H150V282z" fill="#FAF5EC"/>
  <circle cx="256" cy="318" r="14" fill="#C7634A"/>
  <circle cx="206" cy="338" r="10" fill="#C7634A"/>
  <circle cx="306" cy="338" r="10" fill="#C7634A"/>
</svg>
